<?xml version="1.0" standalone="no"?>
<!DOCTYPE svg PUBLIC "-//W3C//DTD SVG 20010904//EN"
 "http://www.w3.org/TR/2001/REC-SVG-20010904/DTD/svg10.dtd">
<svg version="1.0" xmlns="http://www.w3.org/2000/svg"
 width="1024.000000pt" height="1024.000000pt" viewBox="0 0 1024.000000 1024.000000"
 preserveAspectRatio="xMidYMid meet">

<g transform="translate(0.000000,1024.000000) scale(0.100000,-0.100000)"
fill="#000000" stroke="none">
<path d="M0 5120 l0 -5120 5120 0 5120 0 0 5120 0 5120 -5120 0 -5120 0 0
-5120z m5789 2933 c-1 -5 -1 -70 0 -145 l1 -138 45 0 45 0 0 -465 0 -465 -50
0 c-49 0 -50 0 -51 -32 -2 -32 -2 -33 -6 -4 -6 38 9 51 57 47 l40 -3 -1 69 c0
37 -3 63 -5 56 -3 -7 -13 -10 -22 -7 -15 5 -15 4 1 -6 26 -17 20 -30 -14 -30
-25 0 -29 -3 -20 -14 9 -11 2 -13 -44 -11 -30 2 -53 -1 -50 -5 8 -13 -21 -20
-33 -8 -7 7 -10 5 -7 -8 1 -11 8 -18 14 -16 9 2 9 -3 1 -17 -5 -11 -10 -48
-10 -82 0 -80 -9 -73 -11 9 l-2 62 -48 0 -49 0 0 465 0 465 45 0 45 0 1 133
c1 72 1 138 0 145 -1 8 17 12 64 12 36 0 64 -3 64 -7z m-519 -528 l0 -135 45
0 45 0 0 -205 0 -205 -160 0 -160 0 0 205 0 205 50 0 50 0 0 135 0 135 65 0
65 0 0 -135z m-1427 90 c-3 -9 -8 -14 -10 -11 -3 3 -2 9 2 15 9 16 15 13 8 -4z
m-137 -276 c-14 -30 -25 -50 -25 -46 -1 12 41 108 45 104 3 -2 -7 -28 -20 -58z
m-52 -140 c-8 -24 -26 -82 -40 -129 -13 -47 -21 -67 -18 -45 7 48 64 229 70
222 2 -2 -3 -24 -12 -48z m-67 -241 c-3 -8 -6 -5 -6 6 -1 11 2 17 5 13 3 -3 4
-12 1 -19z m-12 -73 c-4 -25 -9 -44 -12 -41 -2 2 -1 25 2 51 4 25 9 44 12 41
2 -2 1 -25 -2 -51z m2167 -20 c-5 -30 -21 -34 -19 -5 1 11 5 20 10 20 4 0 5 5
1 12 -4 6 -3 8 3 5 6 -4 8 -18 5 -32z m21 -10 c-3 -9 -8 -14 -10 -11 -3 3 -2
9 2 15 9 16 15 13 8 -4z m-2209 -126 c-4 -46 -9 -78 -12 -71 -5 16 8 165 14
159 3 -2 2 -42 -2 -88z m1496 -69 l0 -130 91 0 90 0 -3 130 -3 130 78 0 77 0
0 -127 0 -128 83 -16 c202 -39 321 -146 357 -323 30 -149 -54 -309 -184 -347
-49 -14 -44 -29 10 -29 69 0 181 -83 227 -169 26 -47 52 -164 45 -198 -3 -10
-8 11 -12 47 -13 104 -62 210 -88 194 -6 -4 -8 -3 -5 3 7 11 -35 54 -70 72
-17 8 -29 9 -43 1 -17 -9 -20 -8 -20 9 0 14 -5 19 -15 15 -8 -4 -15 -2 -15 4
0 16 -81 20 -87 4 -8 -19 7 -29 17 -12 8 13 10 12 10 -2 0 -22 -23 -23 -40 -3
-7 8 -9 15 -6 15 4 0 1 10 -5 23 -11 20 -11 21 4 9 16 -14 37 -9 37 9 0 6 -4
7 -10 4 -5 -3 -10 -1 -10 6 0 7 -3 9 -6 6 -4 -3 -16 -1 -28 5 -19 10 -20 9 -8
-5 11 -13 10 -17 -9 -27 -19 -10 -21 -10 -16 3 4 10 0 13 -13 10 -10 -3 -21 0
-25 6 -3 6 -3 11 2 10 19 -3 43 2 43 9 0 4 -18 8 -40 8 -22 1 -38 -1 -35 -5 2
-4 -2 -8 -9 -8 -16 0 -10 24 7 30 7 2 3 2 -8 -1 -39 -9 -430 -13 -443 -4 -9 6
-12 54 -13 187 0 98 -2 175 -5 172 -3 -3 -6 -19 -6 -36 -1 -17 -4 -28 -8 -26
-3 2 -5 -9 -4 -26 2 -30 -10 -47 -20 -30 -4 5 -2 12 4 16 5 3 10 11 10 16 0 6
-6 7 -12 2 -24 -15 -58 -14 -58 1 0 8 -5 18 -12 22 -8 5 -9 2 -5 -9 4 -10 2
-17 -4 -17 -7 0 -9 10 -5 25 4 14 2 24 -3 23 -5 -2 -9 1 -9 6 0 16 -26 25 -35
13 -6 -8 -7 -7 -4 3 2 8 10 14 16 13 6 -2 11 6 11 17 0 21 -27 40 -59 40 -12
0 -21 4 -21 9 0 5 10 7 23 5 12 -2 16 -2 9 2 -6 3 -9 10 -6 16 4 6 -2 8 -17 3
-19 -5 -21 -4 -9 4 13 10 8 15 -12 12 -5 0 -8 6 -8 15 0 8 4 13 9 10 5 -4 7 3
4 14 -3 10 -8 19 -12 18 -19 -2 -22 4 -10 20 11 15 11 15 -7 -1 -19 -18 -19
-18 0 -33 11 -8 14 -14 7 -14 -7 0 -10 -4 -7 -9 4 -5 0 -8 -6 -7 -21 3 -38 16
-37 29 0 9 2 9 6 0 2 -7 12 -13 20 -13 25 0 -5 30 -31 31 -11 0 -15 3 -9 6 7
2 15 4 18 3 8 -1 35 27 35 36 0 5 -5 3 -12 -4 -18 -18 -32 -14 -17 5 8 9 9 14
2 10 -6 -4 -13 -1 -16 5 -2 7 -8 9 -13 5 -5 -4 -4 -11 1 -15 13 -9 17 -32 6
-32 -5 0 -18 -3 -28 -7 -17 -6 -17 -6 -1 10 9 10 15 24 12 31 -3 7 2 20 10 29
14 13 13 15 -10 20 -26 5 -43 -8 -22 -16 10 -3 10 -8 -1 -18 -9 -9 -11 -9 -7
-1 5 7 1 12 -9 12 -10 0 -13 5 -9 12 5 8 2 9 -10 5 -10 -4 -15 -3 -11 3 4 6
-15 10 -49 10 l-55 0 -4 -72 -3 -73 -2 78 -2 77 230 0 230 0 0 130 0 130 75 0
75 0 0 -130z m727 78 c-3 -7 -5 -2 -5 12 0 14 2 19 5 13 2 -7 2 -19 0 -25z
m1687 -223 c55 -321 43 -668 -35 -977 -28 -113 -108 -352 -115 -345 -2 1 14
55 36 118 38 110 81 271 94 354 4 22 9 53 12 69 4 19 3 26 -5 22 -6 -4 -11
-21 -11 -37 0 -17 -4 -28 -8 -25 -5 3 -6 -9 -4 -26 4 -28 3 -29 -17 -19 -12 7
-21 8 -20 4 3 -19 -2 -23 -19 -14 -15 8 -25 -5 -72 -97 -128 -255 -305 -476
-545 -682 -28 -24 -18 -11 23 28 39 39 72 75 72 80 0 4 -6 14 -12 22 -7 8 -3
6 10 -4 20 -18 22 -18 22 -2 0 9 4 15 9 12 5 -3 14 1 21 9 10 12 9 15 -4 15
-9 0 -16 2 -16 4 0 2 -3 12 -7 22 -5 14 -3 16 12 10 18 -7 18 -6 -1 15 l-19
22 25 -6 c23 -6 24 -5 7 8 -11 7 -26 11 -35 8 -10 -4 -8 1 6 15 12 12 22 26
22 32 0 5 8 7 18 4 14 -5 14 -4 2 4 -11 9 -33 -7 -100 -73 -94 -92 -211 -190
-262 -219 -44 -25 -29 -12 66 60 176 131 379 362 503 571 175 299 283 699 283
1054 0 53 4 89 10 89 6 0 10 -32 10 -75 0 -62 2 -73 15 -69 8 4 15 17 15 31 0
16 -4 22 -12 17 -6 -4 -8 -3 -5 3 4 6 2 37 -4 69 -6 32 -12 77 -14 99 -6 58
31 -92 49 -200z m-3927 53 c-3 -8 -6 -5 -6 6 -1 11 2 17 5 13 3 -3 4 -12 1
-19z m2221 15 c-15 -2 -42 -2 -60 0 -18 2 -6 4 27 4 33 0 48 -2 33 -4z m-2221
-140 c-2 -21 -4 -4 -4 37 0 41 2 58 4 38 2 -21 2 -55 0 -75z m1038 -13 c3 -6
-1 -7 -9 -4 -18 7 -21 14 -7 14 6 0 13 -4 16 -10z m-120 -70 c3 -5 1 -10 -4
-10 -6 0 -11 5 -11 10 0 6 2 10 4 10 3 0 8 -4 11 -10z m218 -1 c9 -1 17 -6 17
-11 0 -5 4 -7 10 -3 21 13 31 -84 30 -321 0 -136 -2 -249 -5 -252 -3 -3 -5
106 -5 242 0 334 -1 335 -160 338 -49 1 -90 4 -90 8 0 6 160 5 203 -1z m-1126
-51 c-2 -13 -4 -5 -4 17 -1 22 1 32 4 23 2 -10 2 -28 0 -40z m1246 -31 c4 3 7
2 7 -4 0 -6 -7 -13 -15 -17 -8 -3 -15 -1 -15 4 0 5 -7 7 -15 4 -8 -4 -15 -1
-15 6 0 6 5 8 10 5 6 -3 10 -1 10 6 0 8 3 9 13 0 8 -6 17 -8 20 -4z m5 -91
c-7 -8 -15 -12 -17 -11 -5 6 10 25 20 25 5 0 4 -6 -3 -14z m7 -25 c-3 -6 -11
-11 -16 -11 -5 0 -4 6 3 14 14 16 24 13 13 -3z m133 -61 c-7 -10 -14 -17 -17
-15 -4 4 18 35 25 35 2 0 -1 -9 -8 -20z m519 -276 c-3 -3 -12 -4 -19 -1 -8 3
-5 6 6 6 11 1 17 -2 13 -5z m69 -31 c-11 -11 -17 4 -9 23 7 18 8 18 11 1 2
-10 1 -21 -2 -24z m-22 12 c-4 -8 -11 -12 -16 -9 -6 4 -5 10 3 15 19 12 19 11
13 -6z m137 -17 c1 -7 1 -16 0 -20 -2 -13 17 -9 22 5 2 6 4 -1 4 -17 0 -16 -3
-23 -7 -16 -6 9 -9 9 -13 -1 -4 -10 -6 -8 -6 4 -1 10 -5 16 -11 12 -5 -3 -8
-11 -6 -18 1 -7 1 -9 -1 -5 -3 5 -14 3 -26 -3 -14 -7 -9 0 11 19 31 28 32 31
15 41 -17 10 -17 10 0 11 9 0 18 -6 18 -12z m-128 -15 c-7 -2 -19 -2 -25 0 -7
3 -2 5 12 5 14 0 19 -2 13 -5z m32 -12 c3 -5 2 -12 -3 -15 -5 -3 -9 1 -9 9 0
17 3 19 12 6z m209 -9 c3 -5 -1 -9 -9 -9 -8 0 -15 4 -15 9 0 4 4 8 9 8 6 0 12
-4 15 -8z m-566 -39 c-32 -2 -84 -2 -115 0 -32 2 -6 3 57 3 63 0 89 -1 58 -3z
m295 -27 c67 -33 116 -90 122 -143 l5 -38 -12 39 c-15 54 -90 128 -148 146
-25 7 -81 17 -125 21 l-80 7 91 -2 c76 -2 100 -6 147 -30z m237 30 c0 -3 -4
-8 -10 -11 -5 -3 -10 -1 -10 4 0 6 5 11 10 11 6 0 10 -2 10 -4z m1660 -90 c0
-3 -4 -8 -10 -11 -5 -3 -10 -1 -10 4 0 6 5 11 10 11 6 0 10 -2 10 -4z m38 -13
c-9 -10 -14 -24 -12 -31 1 -8 0 -8 -3 -1 -4 8 -8 7 -14 -2 -6 -10 -8 -7 -6 10
2 14 12 28 23 32 28 11 29 11 12 -8z m-44 -48 c3 -9 0 -15 -9 -15 -9 0 -12 6
-9 15 4 8 7 15 9 15 2 0 5 -7 9 -15z m-1758 -117 c-4 -29 -12 -59 -17 -67 -8
-13 -9 -12 -5 4 3 11 8 41 12 68 3 26 9 47 11 47 3 0 2 -23 -1 -52z m291 -55
c-3 -10 -5 -4 -5 12 0 17 2 24 5 18 2 -7 2 -21 0 -30z m-326 -56 c-10 -9 -11
-8 -5 6 3 10 9 15 12 12 3 -3 0 -11 -7 -18z m-51 -61 c0 -2 -8 -10 -17 -17
-16 -13 -17 -12 -4 4 13 16 21 21 21 13z m1751 -163 c-12 -20 -14 -14 -5 12 4
9 9 14 11 11 3 -2 0 -13 -6 -23z m-926 -363 c-3 -5 -12 -10 -18 -10 -7 0 -6 4
3 10 19 12 23 12 15 0z m145 -1640 l0 -70 -80 0 -80 0 0 64 c0 73 -2 72 103
75 l57 1 0 -70z m1030 -62 l0 -121 114 6 c150 9 206 -3 255 -52 50 -50 61
-100 59 -263 0 -73 -3 -117 -5 -98 -10 110 -14 125 -28 107 -15 -21 -29 -22
-21 -2 3 8 1 15 -4 15 -6 0 -10 -5 -10 -11 0 -7 -10 -9 -25 -7 -28 6 -33 -8
-38 -117 -2 -33 -4 2 -5 78 -2 149 -14 196 -53 217 -24 13 -204 10 -226 -3
-10 -6 -13 -52 -14 -165 -2 -156 -2 -156 -13 -82 -7 50 -16 76 -25 78 -12 3
-12 0 -1 -13 11 -13 10 -15 -6 -9 -31 11 -44 25 -44 48 0 17 -2 18 -10 6 -6
-10 -4 -20 7 -32 9 -10 13 -21 8 -26 -4 -4 -10 -1 -12 6 -3 6 -10 9 -16 5 -6
-4 -8 -1 -5 8 3 8 2 23 -3 34 -5 12 -9 -18 -10 -80 -2 -79 -4 -61 -10 85 -3
102 -7 256 -8 342 l-1 157 68 4 c37 2 70 4 75 5 4 1 7 -53 7 -120z m-1740
-110 c73 -123 135 -227 137 -233 8 -19 -22 24 -66 94 -24 39 -48 68 -54 64 -5
-3 -8 -2 -5 3 3 5 -2 16 -11 24 -9 8 -15 13 -14 11 2 -2 -2 -10 -7 -17 -11
-13 -50 -8 -50 7 0 5 -6 8 -12 6 -7 -1 -12 3 -11 10 2 6 -7 15 -18 18 -11 4
-24 16 -29 28 l-9 22 0 -21 c-1 -19 -7 -21 -50 -20 -41 1 -47 3 -38 15 10 12
9 14 -5 8 -9 -3 -19 -1 -22 6 -2 7 -5 -4 -6 -23 -3 -81 -11 -164 -15 -169 -3
-2 -5 84 -5 192 l0 197 78 0 79 0 133 -222z m400 -80 c0 -296 -6 -395 -11
-188 -3 117 -7 139 -20 118 -6 -10 -9 -8 -9 7 0 15 -3 17 -9 7 -11 -19 -24
-17 -32 5 -6 15 -8 14 -8 -6 -1 -24 -1 -24 -17 -5 -8 10 -13 13 -9 7 3 -7 2
-13 -3 -13 -5 0 -10 -35 -11 -77 -1 -43 -4 -79 -7 -82 -2 -2 -4 116 -4 262 l0
267 70 0 70 0 0 -302z m-1691 225 c-2 -24 -2 -25 -6 -5 -4 20 -10 22 -63 22
-56 0 -59 -1 -63 -27 -4 -26 -4 -26 -6 5 l-1 32 70 0 70 0 -1 -27z m3795 -30
c-3 -32 -2 -73 1 -90 l6 -33 89 0 90 0 0 -60 0 -59 -92 -3 -93 -3 -5 -135 c-4
-99 -7 -116 -9 -65 -2 39 -5 62 -8 53 -2 -10 -8 -18 -11 -19 -4 0 -15 -2 -24
-4 -10 -2 -18 2 -19 8 0 7 -4 3 -9 -8 -9 -19 -9 -19 -16 3 -11 39 -23 24 -27
-35 -2 -37 -4 -15 -7 57 -2 63 -3 122 -4 130 -1 10 -14 16 -43 18 l-43 3 0 59
0 59 42 3 41 3 -2 88 -2 87 74 0 75 0 -4 -57z m-1064 -382 c0 -270 -6 -343
-12 -148 -1 60 -6 111 -10 113 -5 3 -8 -2 -8 -10 0 -10 -9 -16 -22 -16 -21 0
-21 0 -2 15 18 14 18 14 -6 10 -13 -3 -28 1 -32 8 -6 9 -8 8 -9 -3 0 -8 -5 -4
-9 10 -6 20 -8 14 -9 -27 -1 -28 -5 -55 -11 -58 -6 -4 -10 40 -10 124 l0 131
-107 0 c-171 0 -201 -31 -205 -207 -1 -78 -3 -85 -5 -33 -2 35 -9 71 -16 79
-9 12 -9 13 1 7 8 -5 12 1 11 21 0 16 -3 22 -6 13 -3 -8 -12 -19 -20 -23 -7
-5 -10 -14 -6 -20 3 -7 -3 -4 -14 6 -11 9 -23 17 -26 17 -4 0 -7 -8 -8 -17 0
-13 -3 -11 -10 7 -15 37 -26 10 -28 -73 -3 -106 -11 -95 -11 16 0 191 39 270
156 312 30 11 85 14 236 12 l198 -2 0 -264z m-3357 252 c-7 -2 -19 -2 -25 0
-7 3 -2 5 12 5 14 0 19 -2 13 -5z m465 0 c-10 -2 -28 -2 -40 0 -13 2 -5 4 17
4 22 1 32 -1 23 -4z m285 0 c-13 -2 -35 -2 -50 0 -16 2 -5 4 22 4 28 0 40 -2
28 -4z m380 0 c-7 -2 -21 -2 -30 0 -10 3 -4 5 12 5 17 0 24 -2 18 -5z m212 -3
c12 -4 -7 -6 -45 -3 -36 3 -67 7 -69 9 -9 8 95 2 114 -6z m1275 -152 c-4 -152
-5 -157 -10 -73 -4 50 -7 80 -8 67 -1 -13 -8 -22 -14 -21 -18 3 -49 -12 -44
-20 3 -4 -4 -7 -14 -7 -13 0 -16 4 -9 12 6 7 4 16 -6 24 -13 11 -15 3 -15 -65
0 -125 -7 -83 -15 88 l-7 157 74 0 73 0 -5 -162z m-794 105 c15 -27 36 -63 46
-80 39 -66 8 -31 -37 42 -26 41 -51 75 -56 75 -5 0 -9 -42 -10 -92 -1 -113 -7
-105 -11 15 -3 84 -2 87 19 87 16 0 30 -13 49 -47z m-391 -15 l30 -33 -40 35
c-22 19 -44 39 -50 44 -5 5 -1 4 10 -2 11 -6 33 -25 50 -44z m202 -130 c-3 -7
-5 -2 -5 12 0 14 2 19 5 13 2 -7 2 -19 0 -25z m273 2 c6 -11 8 -20 6 -20 -3 0
-10 9 -16 20 -6 11 -8 20 -6 20 3 0 10 -9 16 -20z m663 -5 c-3 -9 -8 -14 -10
-11 -3 3 -2 9 2 15 9 16 15 13 8 -4z m44 -147 c-3 -8 -6 -5 -6 6 -1 11 2 17 5
13 3 -3 4 -12 1 -19z"/>
<path d="M5708 8042 c-22 -3 -26 -8 -26 -32 1 -24 3 -26 14 -15 8 7 14 18 14
24 0 17 18 13 29 -6 10 -17 10 -16 11 2 0 17 2 18 11 5 8 -13 10 -12 7 4 -3
20 -16 24 -60 18z"/>
<path d="M5695 6930 c3 -5 8 -10 11 -10 2 0 4 5 4 10 0 6 -5 10 -11 10 -5 0
-7 -4 -4 -10z"/>
<path d="M5770 6919 c0 -5 5 -7 10 -4 6 3 10 8 10 11 0 2 -4 4 -10 4 -5 0 -10
-5 -10 -11z"/>
<path d="M5590 6881 c0 -27 3 -29 45 -33 27 -2 44 1 42 7 -2 5 -18 9 -35 9
-17 -1 -29 2 -27 7 3 4 1 10 -5 14 -6 4 -8 11 -5 16 4 5 1 9 -4 9 -6 0 -11
-13 -11 -29z"/>
<path d="M5626 6891 c-4 -5 -2 -12 3 -15 5 -4 12 -2 15 3 4 5 2 12 -3 15 -5 4
-12 2 -15 -3z"/>
<path d="M5154 7620 c5 -44 10 -45 46 -13 17 15 39 31 48 35 10 4 -9 7 -40 7
l-58 1 4 -30z m26 -4 c0 -3 -4 -8 -10 -11 -5 -3 -10 -1 -10 4 0 6 5 11 10 11
6 0 10 -2 10 -4z"/>
<path d="M5230 7620 c0 -5 5 -10 11 -10 5 0 7 5 4 10 -3 6 -8 10 -11 10 -2 0
-4 -4 -4 -10z"/>
<path d="M5061 7224 c0 -11 3 -14 6 -6 3 7 2 16 -1 19 -3 4 -6 -2 -5 -13z"/>
<path d="M5063 7123 c1 -72 3 -83 19 -83 11 0 15 5 12 15 -4 8 -2 15 4 15 11
0 26 -49 17 -58 -3 -3 -5 0 -5 6 0 7 -11 12 -25 12 -18 0 -25 -5 -25 -19 0
-15 6 -18 33 -15 17 2 51 4 75 5 31 2 42 6 42 18 0 14 -2 14 -10 1 -9 -13 -10
-13 -10 0 0 13 -1 13 -10 0 -9 -13 -10 -13 -11 0 -1 8 0 22 1 30 3 21 -11 6
-15 -17 -2 -10 -4 -20 -5 -23 -2 -11 -29 46 -30 62 0 12 -5 15 -17 11 -13 -5
-15 -2 -10 12 7 16 5 16 -10 4 -9 -8 -14 -9 -10 -3 3 5 2 32 -3 60 -8 45 -8
42 -7 -33z"/>
<path d="M4980 6118 l0 -223 212 5 c226 6 252 11 301 58 81 77 84 233 5 309
-62 60 -92 67 -315 71 l-203 4 0 -224z"/>
<path d="M4825 6250 c-3 -5 -2 -10 4 -10 5 0 13 5 16 10 3 6 2 10 -4 10 -5 0
-13 -4 -16 -10z"/>
<path d="M4923 6235 c0 -8 4 -12 9 -9 5 3 6 10 3 15 -9 13 -12 11 -12 -6z"/>
<path d="M4863 6189 c14 -23 48 -33 40 -12 -3 8 0 19 8 24 10 6 11 9 1 9 -7 0
-15 -7 -18 -15 -4 -8 -10 -12 -15 -9 -5 3 -7 9 -5 13 3 4 -1 8 -8 8 -11 0 -12
-4 -3 -18z"/>
<path d="M5526 5972 c-3 -5 1 -9 9 -9 8 0 12 4 9 9 -3 4 -7 8 -9 8 -2 0 -6 -4
-9 -8z"/>
<path d="M5455 5911 c-6 -11 13 -26 22 -17 4 3 1 6 -6 6 -7 0 -9 5 -6 10 3 6
4 10 1 10 -3 0 -7 -4 -11 -9z"/>
<path d="M5606 5881 c-3 -5 1 -12 10 -15 22 -8 25 -4 9 11 -8 7 -16 9 -19 4z"/>
<path d="M7465 5973 c-3 -21 -15 -67 -26 -102 -20 -66 -19 -89 1 -51 6 12 14
19 17 17 2 -3 0 -14 -5 -24 -6 -11 -7 -25 -2 -32 10 -18 20 30 17 82 -1 20 0
37 3 37 3 0 6 25 8 55 4 63 -3 72 -13 18z"/>
<path d="M7396 5749 c-9 -23 -15 -43 -12 -46 2 -2 9 12 16 31 13 40 31 59 23
24 -5 -18 -3 -21 7 -11 13 12 7 43 -9 43 -5 0 -16 -19 -25 -41z"/>
<path d="M7365 5679 c-11 -16 -1 -19 13 -3 7 8 8 14 3 14 -5 0 -13 -5 -16 -11z"/>
<path d="M6916 5055 c4 -8 11 -15 16 -15 6 0 5 6 -2 15 -7 8 -14 15 -16 15 -2
0 -1 -7 2 -15z"/>
<path d="M7850 2651 c0 -6 4 -13 10 -16 6 -3 7 1 4 9 -7 18 -14 21 -14 7z"/>
<path d="M5608 2953 c7 -3 16 -2 19 1 4 3 -2 6 -13 5 -11 0 -14 -3 -6 -6z"/>
<path d="M5690 2946 c0 -2 7 -7 16 -10 8 -3 12 -2 9 4 -6 10 -25 14 -25 6z"/>
<path d="M5738 2893 c7 -3 16 -2 19 1 4 3 -2 6 -13 5 -11 0 -14 -3 -6 -6z"/>
<path d="M8271 2694 c0 -11 3 -14 6 -6 3 7 2 16 -1 19 -3 4 -6 -2 -5 -13z"/>
<path d="M8171 2684 c0 -11 3 -14 6 -6 3 7 2 16 -1 19 -3 4 -6 -2 -5 -13z"/>
</g>
</svg>
